<svg width="534" height="242" viewBox="0 0 534 242" fill="none" xmlns="http://www.w3.org/2000/svg">
<path d="M226.587 113.554C233.874 113.554 240.65 115.253 246.913 118.65C253.175 122.047 258.186 126.84 261.943 133.028C265.701 139.216 267.58 146.314 267.58 154.322C267.58 163.179 265.417 171.005 261.089 177.8C256.877 184.595 251.069 189.812 243.667 193.452C236.266 197.092 228.067 198.912 219.071 198.912C207.57 198.912 197.493 196.546 188.839 191.814C180.299 187.082 173.637 180.045 168.855 170.702C164.072 161.359 161.681 149.893 161.681 136.304C161.681 121.744 164.414 109.125 169.88 98.448C175.459 87.7707 183.202 79.6413 193.109 74.06C203.13 68.4787 214.744 65.688 227.953 65.688C235.127 65.688 241.959 66.598 248.45 68.418C254.94 70.1167 260.463 72.5433 265.018 75.698L250.499 105.728C244.579 101.239 237.347 98.994 228.807 98.994C221.861 98.994 216.111 100.875 211.556 104.636C207.115 108.276 204.211 113.615 202.845 120.652C209.108 115.92 217.022 113.554 226.587 113.554ZM216.338 169.246C219.982 169.246 222.943 168.093 225.22 165.788C227.498 163.483 228.636 160.328 228.636 156.324C228.636 152.32 227.498 149.165 225.22 146.86C222.943 144.433 219.982 143.22 216.338 143.22C212.695 143.22 209.734 144.433 207.457 146.86C205.179 149.165 204.041 152.32 204.041 156.324C204.041 160.328 205.179 163.483 207.457 165.788C209.734 168.093 212.695 169.246 216.338 169.246ZM328.751 198.912C318.161 198.912 308.766 196.303 300.568 191.086C292.484 185.747 286.107 178.103 281.438 168.154C276.883 158.083 274.605 146.132 274.605 132.3C274.605 118.468 276.883 106.577 281.438 96.628C286.107 86.5573 292.484 78.9133 300.568 73.696C308.766 68.3573 318.161 65.688 328.751 65.688C339.341 65.688 348.679 68.3573 356.763 73.696C364.961 78.9133 371.338 86.5573 375.893 96.628C380.562 106.577 382.896 118.468 382.896 132.3C382.896 146.132 380.562 158.083 375.893 168.154C371.338 178.103 364.961 185.747 356.763 191.086C348.679 196.303 339.341 198.912 328.751 198.912ZM328.751 164.514C337.861 164.514 342.415 153.776 342.415 132.3C342.415 110.824 337.861 100.086 328.751 100.086C319.642 100.086 315.086 110.824 315.086 132.3C315.086 153.776 319.642 164.514 328.751 164.514Z" fill="#534FD2"/>
<path d="M214.386 100.554C221.674 100.554 228.449 102.253 234.712 105.65C240.975 109.047 245.985 113.84 249.743 120.028C253.501 126.216 255.38 133.314 255.38 141.322C255.38 150.179 253.216 158.005 248.889 164.8C244.676 171.595 238.869 176.812 231.467 180.452C224.065 184.092 215.867 185.912 206.871 185.912C195.37 185.912 185.293 183.546 176.639 178.814C168.098 174.082 161.437 167.045 156.654 157.702C151.872 148.359 149.481 136.893 149.481 123.304C149.481 108.744 152.213 96.1253 157.679 85.448C163.259 74.7707 171.002 66.6413 180.909 61.06C190.929 55.4787 202.544 52.688 215.753 52.688C222.927 52.688 229.759 53.598 236.249 55.418C242.74 57.1167 248.263 59.5433 252.818 62.698L238.299 92.728C232.378 88.2387 225.147 85.994 216.607 85.994C209.661 85.994 203.91 87.8747 199.356 91.636C194.915 95.276 192.011 100.615 190.645 107.652C196.907 102.92 204.821 100.554 214.386 100.554ZM204.138 156.246C207.782 156.246 210.743 155.093 213.02 152.788C215.297 150.483 216.436 147.328 216.436 143.324C216.436 139.32 215.297 136.165 213.02 133.86C210.743 131.433 207.782 130.22 204.138 130.22C200.494 130.22 197.534 131.433 195.256 133.86C192.979 136.165 191.84 139.32 191.84 143.324C191.84 147.328 192.979 150.483 195.256 152.788C197.534 155.093 200.494 156.246 204.138 156.246ZM316.55 185.912C305.96 185.912 296.566 183.303 288.367 178.086C280.283 172.747 273.906 165.103 269.237 155.154C264.683 145.083 262.405 133.132 262.405 119.3C262.405 105.468 264.683 93.5773 269.237 83.628C273.906 73.5573 280.283 65.9133 288.367 60.696C296.566 55.3573 305.96 52.688 316.55 52.688C327.14 52.688 336.478 55.3573 344.562 60.696C352.761 65.9133 359.138 73.5573 363.692 83.628C368.361 93.5773 370.695 105.468 370.695 119.3C370.695 133.132 368.361 145.083 363.692 155.154C359.138 165.103 352.761 172.747 344.562 178.086C336.478 183.303 327.14 185.912 316.55 185.912ZM316.55 151.514C325.66 151.514 330.215 140.776 330.215 119.3C330.215 97.824 325.66 87.086 316.55 87.086C307.441 87.086 302.886 97.824 302.886 119.3C302.886 140.776 307.441 151.514 316.55 151.514Z" fill="white"/>
<path d="M413.93 175.68C411.039 175.68 408.674 174.64 406.835 172.56C405.033 170.44 404.132 167.62 404.132 164.1C404.132 160.58 405.033 157.78 406.835 155.7C408.674 153.58 411.039 152.52 413.93 152.52C416.82 152.52 419.167 153.58 420.968 155.7C422.77 157.78 423.671 160.58 423.671 164.1C423.671 167.62 422.77 170.44 420.968 172.56C419.167 174.64 416.82 175.68 413.93 175.68ZM437.411 153H444.112L417.196 195H410.495L437.411 153ZM413.93 170.76C415.206 170.76 416.201 170.2 416.914 169.08C417.665 167.96 418.04 166.3 418.04 164.1C418.04 161.9 417.665 160.24 416.914 159.12C416.201 158 415.206 157.44 413.93 157.44C412.691 157.44 411.696 158.02 410.945 159.18C410.195 160.3 409.819 161.94 409.819 164.1C409.819 166.26 410.195 167.92 410.945 169.08C411.696 170.2 412.691 170.76 413.93 170.76ZM440.677 195.48C438.8 195.48 437.11 195.02 435.609 194.1C434.145 193.14 433 191.78 432.174 190.02C431.348 188.26 430.935 186.22 430.935 183.9C430.935 181.58 431.348 179.54 432.174 177.78C433 176.02 434.145 174.68 435.609 173.76C437.11 172.8 438.8 172.32 440.677 172.32C443.567 172.32 445.913 173.38 447.715 175.5C449.555 177.58 450.475 180.38 450.475 183.9C450.475 187.42 449.555 190.24 447.715 192.36C445.913 194.44 443.567 195.48 440.677 195.48ZM440.677 190.56C441.953 190.56 442.948 190 443.661 188.88C444.412 187.72 444.787 186.06 444.787 183.9C444.787 181.74 444.412 180.1 443.661 178.98C442.948 177.82 441.953 177.24 440.677 177.24C439.438 177.24 438.443 177.8 437.692 178.92C436.942 180.04 436.566 181.7 436.566 183.9C436.566 186.1 436.942 187.76 437.692 188.88C438.443 190 439.438 190.56 440.677 190.56Z" fill="#534FD2"/>
<path d="M409.237 170.68C406.347 170.68 403.982 169.64 402.142 167.56C400.34 165.44 399.44 162.62 399.44 159.1C399.44 155.58 400.34 152.78 402.142 150.7C403.982 148.58 406.347 147.52 409.237 147.52C412.128 147.52 414.474 148.58 416.276 150.7C418.078 152.78 418.979 155.58 418.979 159.1C418.979 162.62 418.078 165.44 416.276 167.56C414.474 169.64 412.128 170.68 409.237 170.68ZM432.718 148H439.419L412.503 190H405.802L432.718 148ZM409.237 165.76C410.514 165.76 411.508 165.2 412.222 164.08C412.973 162.96 413.348 161.3 413.348 159.1C413.348 156.9 412.973 155.24 412.222 154.12C411.508 153 410.514 152.44 409.237 152.44C407.999 152.44 407.004 153.02 406.253 154.18C405.502 155.3 405.127 156.94 405.127 159.1C405.127 161.26 405.502 162.92 406.253 164.08C407.004 165.2 407.999 165.76 409.237 165.76ZM435.984 190.48C434.107 190.48 432.418 190.02 430.916 189.1C429.452 188.14 428.307 186.78 427.482 185.02C426.656 183.26 426.243 181.22 426.243 178.9C426.243 176.58 426.656 174.54 427.482 172.78C428.307 171.02 429.452 169.68 430.916 168.76C432.418 167.8 434.107 167.32 435.984 167.32C438.875 167.32 441.221 168.38 443.023 170.5C444.862 172.58 445.782 175.38 445.782 178.9C445.782 182.42 444.862 185.24 443.023 187.36C441.221 189.44 438.875 190.48 435.984 190.48ZM435.984 185.56C437.261 185.56 438.255 185 438.969 183.88C439.719 182.72 440.095 181.06 440.095 178.9C440.095 176.74 439.719 175.1 438.969 173.98C438.255 172.82 437.261 172.24 435.984 172.24C434.745 172.24 433.751 172.8 433 173.92C432.249 175.04 431.874 176.7 431.874 178.9C431.874 181.1 432.249 182.76 433 183.88C433.751 185 434.745 185.56 435.984 185.56Z" fill="white"/>
<path d="M105.899 57.72V90H97.5653V86.16C96.4016 87.56 95.0126 88.64 93.3984 89.4C91.7842 90.12 90.0386 90.48 88.1616 90.48C84.1824 90.48 81.0291 89.26 78.7017 86.82C76.3742 84.38 75.2105 80.76 75.2105 75.96V57.72H83.9947V74.58C83.9947 79.78 86.0406 82.38 90.1324 82.38C92.2347 82.38 93.9239 81.66 95.2003 80.22C96.4766 78.74 97.1148 76.56 97.1148 73.68V57.72H105.899ZM131.943 57.24C134.759 57.24 137.312 57.94 139.601 59.34C141.929 60.7 143.75 62.64 145.063 65.16C146.377 67.64 147.034 70.54 147.034 73.86C147.034 77.18 146.377 80.1 145.063 82.62C143.75 85.1 141.929 87.04 139.601 88.44C137.312 89.8 134.759 90.48 131.943 90.48C128.077 90.48 125.036 89.18 122.821 86.58V101.64H114.037V57.72H122.427V61.44C124.604 58.64 127.777 57.24 131.943 57.24ZM130.423 82.8C132.675 82.8 134.515 82 135.941 80.4C137.405 78.76 138.137 76.58 138.137 73.86C138.137 71.14 137.405 68.98 135.941 67.38C134.515 65.74 132.675 64.92 130.423 64.92C128.171 64.92 126.312 65.74 124.848 67.38C123.422 68.98 122.709 71.14 122.709 73.86C122.709 76.58 123.422 78.76 124.848 80.4C126.312 82 128.171 82.8 130.423 82.8Z" fill="#534FD2"/>
<path d="M101.207 52.72V85H92.8728V81.16C91.7091 82.56 90.3201 83.64 88.7059 84.4C87.0917 85.12 85.3462 85.48 83.4692 85.48C79.49 85.48 76.3367 84.26 74.0092 81.82C71.6818 79.38 70.518 75.76 70.518 70.96V52.72H79.3023V69.58C79.3023 74.78 81.3482 77.38 85.44 77.38C87.5422 77.38 89.2315 76.66 90.5078 75.22C91.7842 73.74 92.4224 71.56 92.4224 68.68V52.72H101.207ZM127.251 52.24C130.066 52.24 132.619 52.94 134.909 54.34C137.236 55.7 139.057 57.64 140.371 60.16C141.685 62.64 142.342 65.54 142.342 68.86C142.342 72.18 141.685 75.1 140.371 77.62C139.057 80.1 137.236 82.04 134.909 83.44C132.619 84.8 130.066 85.48 127.251 85.48C123.384 85.48 120.344 84.18 118.129 81.58V96.64H109.345V52.72H117.735V56.44C119.912 53.64 123.084 52.24 127.251 52.24ZM125.731 77.8C127.983 77.8 129.822 77 131.249 75.4C132.713 73.76 133.445 71.58 133.445 68.86C133.445 66.14 132.713 63.98 131.249 62.38C129.822 60.74 127.983 59.92 125.731 59.92C123.478 59.92 121.62 60.74 120.156 62.38C118.729 63.98 118.016 66.14 118.016 68.86C118.016 71.58 118.729 73.76 120.156 75.4C121.62 77 123.478 77.8 125.731 77.8Z" fill="white"/>
</svg>
